HIERARCHY
ROOT Hips
{
	OFFSET 0.00000 0.00000 0.00000
	CHANNELS 6 Xposition Yposition Zposition Zrotation Yrotation Xrotation 
	JOINT LHipJoint
	{
		OFFSET 0 0 0
		CHANNELS 3 Zrotation Yrotation Xrotation
		JOINT LeftHip
		{
			OFFSET 1.46561 -1.72757 0.83774
			CHANNELS 3 Zrotation Yrotation Xrotation
			JOINT LeftKnee
			{
				OFFSET 2.48915 -6.83890 0.00000
				CHANNELS 3 Zrotation Yrotation Xrotation
				JOINT LeftAnkle
				{
					OFFSET 2.60555 -7.15868 0.00000
					CHANNELS 3 Zrotation Yrotation Xrotation
					JOINT LeftToe
					{
						OFFSET 0.19248 -0.52884 2.26738
						CHANNELS 3 Zrotation Yrotation Xrotation
						End Site
						{
							OFFSET 0.00000 -0.00000 1.17015
						}
					}
				}
			}
		}
	}
	JOINT RHipJoint
	{
		OFFSET 0 0 0
		CHANNELS 3 Zrotation Yrotation Xrotation
		JOINT RightHip
		{
			OFFSET -1.46918 -1.72757 0.83774
			CHANNELS 3 Zrotation Yrotation Xrotation
			JOINT RightKnee
			{
				OFFSET -2.49034 -6.84216 0.00000
				CHANNELS 3 Zrotation Yrotation Xrotation
				JOINT RightAnkle
				{
					OFFSET -2.65971 -7.30750 0.00000
					CHANNELS 3 Zrotation Yrotation Xrotation
					JOINT RightToe
					{
						OFFSET -0.19227 -0.52827 2.30785
						CHANNELS 3 Zrotation Yrotation Xrotation
						End Site
						{
							OFFSET -0.00000 -0.00000 1.18972
						}
					}
				}
			}
		}
	}
	JOINT lowerback
	{
		OFFSET 0 0 0
		CHANNELS 3 Zrotation Yrotation Xrotation
		JOINT Chest
		{
			OFFSET 0.02432 2.19909 -0.28000
			CHANNELS 3 Zrotation Yrotation Xrotation
			JOINT Chest2
			{
				OFFSET 0.03714 2.21816 -0.15261
				CHANNELS 3 Zrotation Yrotation Xrotation
				JOINT lowerneck
				{
					OFFSET 0 0 0
					CHANNELS 3 Zrotation Yrotation Xrotation
					JOINT Neck
					{
						OFFSET -0.01896 1.56165 0.21681
						CHANNELS 3 Zrotation Yrotation Xrotation
						JOINT Head
						{
							OFFSET 0.02744 1.56009 0.06764
							CHANNELS 3 Zrotation Yrotation Xrotation
							End Site
							{
								OFFSET 0.01212 1.60574 0.00298
							}
						}
					}
				}
				JOINT LeftCollar
				{
					OFFSET 0 0 0
					CHANNELS 3 Zrotation Yrotation Xrotation
					JOINT LeftShoulder
					{
						OFFSET 3.05595 1.48048 -0.60794
CHANNELS 3 Zrotation Xrotation Yrotation
						JOINT LeftElbow
						{
OFFSET 0 -5.206070 -0.000000
CHANNELS 3 Zrotation Xrotation Yrotation
							JOINT LeftWrist
							{
OFFSET 0 -3.399610 0.000000
CHANNELS 3 Zrotation Xrotation Yrotation
								JOINT lhand
								{
									OFFSET 0 0 0
CHANNELS 3 Zrotation Xrotation Yrotation
									JOINT LFingers
									{
OFFSET 0 -0.519690 0.000000
CHANNELS 3 Zrotation Xrotation Yrotation
										End Site
										{
OFFSET 0 -0.418990 0.000000
										}
									}
								}
								JOINT LThumb
								{
OFFSET 0 0.000000 0.000000
CHANNELS 3 Zrotation Xrotation Yrotation
									End Site
									{
OFFSET 0 -0.425390 0.425390
									}
								}
							}
						}
					}
				}
				JOINT RightCollar
				{
					OFFSET 0 0 0
					CHANNELS 3 Zrotation Yrotation Xrotation
					JOINT RightShoulder
					{
						OFFSET -2.99052 1.57608 -0.69102
CHANNELS 3 Zrotation Xrotation Yrotation
						JOINT RightElbow
						{
OFFSET 0 -5.322140 0.000000
CHANNELS 3 Zrotation Xrotation Yrotation
							JOINT RightWrist
							{
OFFSET 0 -3.512080 0.000000
CHANNELS 3 Zrotation Xrotation Yrotation
								JOINT rhand
								{
									OFFSET 0 0 0
CHANNELS 3 Zrotation Xrotation Yrotation
									JOINT RFingers
									{
OFFSET 0 -0.586680 0.000000
CHANNELS 3 Zrotation Xrotation Yrotation
										End Site
										{
OFFSET 0 -0.473000 0.000000
										}
									}
								}
								JOINT RThumb
								{
OFFSET 0 0.000000 0.000000
CHANNELS 3 Zrotation Xrotation Yrotation
									End Site
									{
OFFSET 0 -0.480220 0.480220
									}
								}
							}
						}
					}
				}
			}
		}
	}
}
MOTION
Frames: 9
Frame Time: 0.008333333333333333
0.561600 17.551500 -13.883600 -1.338100 -1.702700 6.246800 0.000000 0.000000 0.000000 -17.744800 3.701900 -12.643500 0.895200 6.030300 16.872500 0.397800 1.196200 -12.407700 0.027000 -1.061700 -2.918600 0.000000 0.000000 0.000000 19.684200 0.326700 -12.041900 -1.158300 -6.832700 19.220600 -0.585300 3.453900 -13.687700 -0.518500 -4.614900 12.813300 -0.067200 -0.697500 -3.508800 1.963200 -1.003200 2.036100 1.993700 -0.530100 4.104600 -2.265100 0.353100 -14.102200 0.269700 0.961700 20.872000 0.581900 0.298000 8.844900 -0.000000 0.000000 0.000000 3.512000 -7.867200 -32.197500 10.446000 -17.434200 1.606000 23.792500 -5.971000 3.034400 0.000000 0.000000 0.000000 -7.125000 0.000000 0.000000 -2.145500 26.662900 -0.955200 -0.000000 0.000000 0.000000 -4.255600 -4.802900 12.109500 -12.975800 -21.251700 -2.444500 -21.319700 40.599600 24.445200 0.000000 0.000000 0.000000 7.125000 0.000000 -0.000000 8.798300 55.774400 -2.339100
0.561020 17.550860 -13.886832 -1.347996 -1.713616 6.247332 0.000000 0.000000 0.000000 -17.733116 3.657694 -12.648214 0.897244 6.037081 16.891910 0.396952 1.263896 -12.427225 0.022151 -0.959639 -2.637896 0.000000 0.000000 0.000000 19.696745 0.336216 -12.054038 -1.158200 -6.832492 19.220076 -0.585420 3.462746 -13.689203 -0.525186 -4.644285 12.896705 -0.040016 -0.697540 -3.511804 1.957145 -1.004561 2.043655 1.971965 -0.530008 4.113574 -2.279674 0.350948 -14.067961 0.290352 0.956409 20.887417 0.590635 0.296516 8.843749 0.000000 0.000000 0.000000 3.519641 -7.878959 -32.100958 10.408995 -17.376816 1.594938 23.753855 -5.845925 2.973867 0.000000 0.000000 0.000000 -7.125000 0.000000 0.000000 -2.175176 26.729747 -0.964977 0.000000 0.000000 0.000000 -4.245187 -4.817275 12.079497 -12.990849 -21.273857 -2.449960 -21.298300 40.578399 24.472015 0.000000 0.000000 0.000000 7.125000 0.000000 0.000000 8.832277 55.797467 -2.353152
0.560036 17.550368 -13.889965 -1.352482 -1.714337 6.247460 0.000000 0.000000 0.000000 -17.727362 3.634687 -12.660295 0.899221 6.043658 16.911161 0.396176 1.304542 -12.435209 0.016824 -0.836309 -2.298600 0.000000 0.000000 0.000000 19.706558 0.335719 -12.065922 -1.158168 -6.832352 19.219640 -0.584388 3.450662 -13.677185 -0.515662 -4.602415 12.777856 -0.038301 -0.699787 -3.506942 1.964105 -1.008267 2.062221 1.978013 -0.532079 4.130356 -2.279567 0.347285 -14.131816 0.283281 0.955298 20.958374 0.588777 0.294440 8.879852 0.000000 0.000000 0.000000 3.496104 -7.900324 -32.024092 10.368594 -17.314007 1.582842 23.822337 -5.842795 3.068795 0.000000 0.000000 0.000000 -7.125000 0.000000 0.000000 -2.122677 26.624611 -0.946931 0.000000 0.000000 0.000000 -4.264458 -4.864999 12.057822 -12.996657 -21.282362 -2.452040 -21.300784 40.603277 24.558203 0.000000 0.000000 0.000000 7.125000 0.000000 0.000000 8.866630 55.886124 -2.381484
0.559556 17.550104 -13.893073 -1.373469 -1.731917 6.245551 0.000000 0.000000 0.000000 -17.704622 3.585151 -12.657297 0.901381 6.050739 16.931695 0.394976 1.385132 -12.456765 0.015371 -0.799477 -2.197169 0.000000 0.000000 0.000000 19.729143 0.345450 -12.073723 -1.158024 -6.832124 19.218872 -0.583608 3.470459 -13.665868 -0.520604 -4.624067 12.839322 -0.012141 -0.696667 -3.496704 1.968665 -1.005687 2.067442 1.968282 -0.530136 4.129552 -2.372902 0.322772 -14.160375 0.383766 0.921727 21.028156 0.635019 0.281254 8.908508 0.000000 0.000000 0.000000 3.481379 -7.886020 -31.960872 10.343642 -17.275300 1.575497 23.787164 -5.780650 3.014512 0.000000 0.000000 0.000000 -7.125000 0.000000 0.000000 -2.149608 26.684688 -0.955904 0.000000 0.000000 0.000000 -4.271659 -4.880399 12.046522 -13.000725 -21.288289 -2.453540 -21.316156 40.626131 24.620108 0.000000 0.000000 0.000000 7.125000 0.000000 0.000000 8.877278 55.952673 -2.398755
0.558940 17.549672 -13.896065 -1.388768 -1.745052 6.242314 0.000000 0.000000 0.000000 -17.687262 3.552742 -12.661680 0.903765 6.058453 16.954138 0.395092 1.435598 -12.482920 0.013251 -0.743203 -2.042414 0.000000 0.000000 0.000000 19.747594 0.352157 -12.080954 -1.157972 -6.831815 19.217946 -0.582679 3.476822 -13.654589 -0.519947 -4.621193 12.831305 0.006321 -0.694306 -3.484333 1.972874 -1.003674 2.073859 1.962454 -0.528691 4.128855 -2.408276 0.312119 -14.179809 0.420201 0.907854 21.079436 0.652080 0.275365 8.929534 0.000000 0.000000 0.000000 3.466328 -7.873692 -31.912474 10.317480 -17.234670 1.567717 23.788000 -5.746726 3.014850 0.000000 0.000000 0.000000 -7.125000 0.000000 0.000000 -2.149000 26.684254 -0.955664 0.000000 0.000000 0.000000 -4.279368 -4.900134 12.016679 -13.002476 -21.290812 -2.454204 -21.326581 40.657914 24.680834 0.000000 0.000000 0.000000 7.125000 0.000000 0.000000 8.892618 56.017096 -2.416880
0.558360 17.549280 -13.899022 -1.406792 -1.761431 6.238318 0.000000 0.000000 0.000000 -17.666486 3.526827 -12.670026 0.906682 6.068026 16.981897 0.395941 1.477863 -12.516522 0.011979 -0.707205 -1.943497 0.000000 0.000000 0.000000 19.769195 0.362968 -12.084882 -1.157620 -6.830760 19.214899 -0.581679 3.480122 -13.642053 -0.518799 -4.616317 12.817432 0.025253 -0.690397 -3.470291 1.977803 -0.999537 2.080004 1.957396 -0.526238 4.126899 -2.439778 0.302515 -14.195346 0.452899 0.895213 21.123423 0.667289 0.270017 8.947389 0.000000 0.000000 0.000000 3.450230 -7.855366 -31.880926 10.295388 -17.200281 1.561176 23.787078 -5.722108 3.021186 0.000000 0.000000 0.000000 -7.125000 0.000000 0.000000 -2.149681 26.677433 -0.956321 0.000000 0.000000 0.000000 -4.286844 -4.919632 11.977691 -13.000237 -21.287596 -2.453359 -21.335625 40.694704 24.725258 0.000000 0.000000 0.000000 7.125000 0.000000 0.000000 8.902383 56.064359 -2.429845
0.557663 17.548908 -13.901950 -1.426414 -1.780491 6.234177 0.000000 0.000000 0.000000 -17.643695 3.509719 -12.681514 0.909694 6.077820 17.010330 0.397369 1.511293 -12.553620 0.011308 -0.686569 -1.886737 0.000000 0.000000 0.000000 19.792645 0.376602 -12.088687 -1.157452 -6.830304 19.213663 -0.580767 3.482414 -13.630748 -0.517335 -4.610050 12.799578 0.044345 -0.685344 -3.457163 1.982423 -0.993908 2.086618 1.951984 -0.523010 4.125940 -2.464458 0.294619 -14.203685 0.479812 0.884317 21.157862 0.679527 0.265469 8.960696 0.000000 0.000000 0.000000 3.434099 -7.832719 -31.863171 10.277051 -17.171720 1.555740 23.787190 -5.704661 3.035547 0.000000 0.000000 0.000000 -7.125000 0.000000 0.000000 -2.149546 26.661740 -0.957100 0.000000 0.000000 0.000000 -4.292748 -4.939628 11.928445 -12.993946 -21.278363 -2.451102 -21.342921 40.733901 24.744241 0.000000 0.000000 0.000000 7.125000 0.000000 0.000000 8.903036 56.085262 -2.434544
0.556963 17.548532 -13.904702 -1.444082 -1.801587 6.230305 0.000000 0.000000 0.000000 -17.622791 3.500659 -12.695753 0.912827 6.087861 17.039433 0.399041 1.537958 -12.591521 0.010988 -0.676215 -1.858386 0.000000 0.000000 0.000000 19.813921 0.390199 -12.093373 -1.157456 -6.830368 19.213805 -0.579851 3.485532 -13.619791 -0.515559 -4.602242 12.777342 0.059556 -0.680276 -3.446632 1.986407 -0.988083 2.094351 1.948017 -0.519829 4.127602 -2.484021 0.287978 -14.208763 0.502641 0.874864 21.187545 0.689641 0.261637 8.971753 0.000000 0.000000 0.000000 3.416015 -7.807994 -31.852208 10.261159 -17.146940 1.551056 23.784537 -5.688569 3.051102 0.000000 0.000000 0.000000 -7.125000 0.000000 0.000000 -2.151553 26.644805 -0.958839 0.000000 0.000000 0.000000 -4.298529 -4.960414 11.873675 -12.984783 -21.264915 -2.447793 -21.348419 40.772657 24.739683 0.000000 0.000000 0.000000 7.125000 0.000000 0.000000 8.895259 56.081708 -2.431615
0.556315 17.548208 -13.907339 -1.458685 -1.824091 6.227746 0.000000 0.000000 0.000000 -17.605248 3.496790 -12.711708 0.915767 6.097285 17.066970 0.400469 1.562524 -12.625583 0.010836 -0.672069 -1.846928 0.000000 0.000000 0.000000 19.831488 0.401370 -12.101534 -1.157756 -6.831269 19.216444 -0.579051 3.493482 -13.609118 -0.514451 -4.597184 12.762974 0.070321 -0.675928 -3.440592 1.989118 -0.983043 2.103754 1.945226 -0.517126 4.133572 -2.498190 0.282608 -14.217095 0.521980 0.866769 21.220235 0.697811 0.258433 8.984498 0.000000 0.000000 0.000000 3.396148 -7.783973 -31.841120 10.246510 -17.124166 1.546736 23.774789 -5.664127 3.057787 0.000000 0.000000 0.000000 -7.125000 0.000000 0.000000 -2.158972 26.637749 -0.962508 0.000000 0.000000 0.000000 -4.303721 -4.983096 11.816503 -12.973135 -21.247810 -2.443543 -21.355706 40.812432 24.713478 0.000000 0.000000 0.000000 7.125000 0.000000 0.000000 8.876191 56.056383 -2.420866
